<svg width="50" height="50" viewBox="0 0 50 50" fill="none" xmlns="http://www.w3.org/2000/svg">
<g clip-path="url(#clip0_3851_25458)">
<path d="M23.2065 3.63397C23.9402 2.14748 26.0598 2.14748 26.7935 3.63397L31.882 13.9444C32.1733 14.5347 32.7364 14.9438 33.3879 15.0385L44.7661 16.6918C46.4065 16.9302 47.0615 18.9462 45.8745 20.1032L37.6411 28.1288C37.1698 28.5883 36.9547 29.2503 37.066 29.899L39.0096 41.2313C39.2898 42.8651 37.5749 44.111 36.1077 43.3397L25.9307 37.9893C25.348 37.683 24.652 37.683 24.0693 37.9893L13.8923 43.3397C12.4251 44.111 10.7102 42.8651 10.9904 41.2313L12.934 29.899C13.0453 29.2503 12.8302 28.5883 12.3589 28.1288L4.12549 20.1032C2.93845 18.9462 3.59347 16.9302 5.23391 16.6918L16.6122 15.0385C17.2636 14.9438 17.8267 14.5347 18.118 13.9444L23.2065 3.63397Z" fill="#FFD900"/>
</g>
<defs>
<clipPath id="clip0_3851_25458">
<rect width="50" height="50" fill="white"/>
</clipPath>
</defs>
</svg>
