<svg width="28" height="28" viewBox="0 0 28 28" fill="none" xmlns="http://www.w3.org/2000/svg">
<path d="M18.7097 9.3345C18.5456 9.17117 18.4635 8.96894 18.4635 8.72783C18.4635 8.48672 18.5452 8.2845 18.7085 8.12117C18.8726 7.95706 19.0749 7.875 19.3152 7.875C19.5555 7.875 19.7581 7.95667 19.923 8.12C20.0864 8.28411 20.168 8.48633 20.168 8.72667C20.168 8.967 20.0864 9.16961 19.923 9.3345C19.7597 9.49939 19.5575 9.58106 19.3164 9.5795C19.0753 9.57795 18.873 9.49628 18.7097 9.3345ZM10.6784 15.974L12.8857 13.1028L14.7395 15.302L17.6025 11.7122L20.819 15.974H10.6784ZM5.96736 23.3333C5.42992 23.3333 4.98153 23.1537 4.6222 22.7943C4.26286 22.435 4.08281 21.9866 4.08203 21.4492V7.7175H5.2487V21.4492C5.2487 21.6281 5.32336 21.7926 5.4727 21.9427C5.62203 22.0928 5.78653 22.1674 5.9662 22.1667H19.6979V23.3333H5.96736ZM7.58203 10.7135V5.38533C7.58203 4.84789 7.76209 4.3995 8.1222 4.04017C8.48231 3.68083 8.9307 3.50078 9.46736 3.5H14.358V4.66667H9.46736C9.2877 4.66667 9.12281 4.74133 8.9727 4.89067C8.82259 5.04 8.74792 5.2045 8.7487 5.38417V10.7135H7.58203ZM9.46736 19.8333C8.92992 19.8333 8.48153 19.6537 8.1222 19.2943C7.76286 18.935 7.58281 18.4866 7.58203 17.9492V13.4948H8.7487V17.9492C8.7487 18.1281 8.82336 18.2926 8.9727 18.4427C9.12203 18.5928 9.28653 18.6674 9.4662 18.6667H14.358V19.8333H9.46736ZM17.1394 19.8333V18.6667H22.0312C22.2101 18.6667 22.3746 18.592 22.5247 18.4427C22.6748 18.2933 22.7495 18.1288 22.7487 17.9492V13.4948H23.9154V17.9492C23.9154 18.4858 23.7357 18.9342 23.3764 19.2943C23.017 19.6544 22.5683 19.8341 22.03 19.8333H17.1394ZM22.7487 10.7135V5.38533C22.7487 5.20567 22.674 5.04078 22.5247 4.89067C22.3754 4.74056 22.2105 4.66589 22.03 4.66667H17.1394V3.5H22.0312C22.5679 3.5 23.0163 3.68006 23.3764 4.04017C23.7365 4.40028 23.9161 4.84828 23.9154 5.38417V10.7135H22.7487Z" fill="#757575"/>
</svg>
