<svg width="28" height="28" viewBox="0 0 28 28" fill="none" xmlns="http://www.w3.org/2000/svg">
<mask id="path-1-outside-1_4980_19675" maskUnits="userSpaceOnUse" x="2" y="2" width="24" height="24" fill="black">
<rect fill="white" x="2" y="2" width="24" height="24"/>
<path d="M6.90622 20.7039C7.94511 19.9559 9.04756 19.3647 10.2136 18.9304C11.3787 18.4953 12.6409 18.2778 14 18.2778C15.3591 18.2778 16.6213 18.4953 17.7864 18.9304C18.9516 19.3656 20.0541 19.9563 21.0938 20.7027C21.9004 19.8675 22.5494 18.8816 23.0408 17.7449C23.5321 16.6066 23.7778 15.3583 23.7778 14C23.7778 11.2907 22.8257 8.98359 20.9214 7.07856C19.0172 5.17352 16.7101 4.22141 14 4.22222C11.2899 4.22304 8.98278 5.17556 7.07856 7.07978C5.17433 8.984 4.22222 11.2907 4.22222 14C4.22222 15.3583 4.46789 16.6066 4.95922 17.7449C5.45056 18.8824 6.09956 19.8683 6.90622 20.7027M14.0012 14.6111C12.9713 14.6111 12.1023 14.2575 11.3942 13.5502C10.6861 12.843 10.3325 11.9748 10.3333 10.9457C10.3341 9.91656 10.6878 9.04756 11.3942 8.33867C12.1007 7.62978 12.9693 7.27615 14 7.27778C15.0307 7.27941 15.8993 7.63304 16.6058 8.33867C17.3122 9.0443 17.6659 9.91289 17.6667 10.9444C17.6675 11.976 17.3139 12.8446 16.6058 13.5502C15.8977 14.2559 15.0295 14.6095 14.0012 14.6111ZM14 25C12.4657 25 11.0296 24.7144 9.69167 24.1432C8.35374 23.572 7.18937 22.7914 6.19856 21.8014C5.20774 20.8114 4.42715 19.6471 3.85678 18.3083C3.28641 16.9696 3.00082 15.5335 3 14C2.99919 12.4665 3.28478 11.0304 3.85678 9.69167C4.42878 8.35293 5.20937 7.18856 6.19856 6.19856C7.18937 5.20856 8.35374 4.42796 9.69167 3.85678C11.0296 3.28559 12.4657 3 14 3C15.5343 3 16.9704 3.28559 18.3083 3.85678C19.6463 4.42796 20.8106 5.20856 21.8014 6.19856C22.7923 7.18856 23.5729 8.35293 24.1432 9.69167C24.7136 11.0304 24.9992 12.4665 25 14C25.0008 15.5335 24.7152 16.9696 24.1432 18.3083C23.5712 19.6471 22.7906 20.8114 21.8014 21.8014C20.8106 22.7914 19.6463 23.572 18.3083 24.1432C16.9704 24.7144 15.5343 25 14 25ZM14 23.7778C15.1269 23.7778 16.2354 23.5806 17.3257 23.1862C18.4159 22.7927 19.3582 22.2533 20.1527 21.568C19.359 20.93 18.4403 20.426 17.3966 20.0561C16.3528 19.6862 15.2206 19.5008 14 19.5C12.7794 19.4992 11.6431 19.6805 10.5912 20.0439C9.5393 20.4073 8.62426 20.9153 7.84611 21.568C8.64056 22.2524 9.5833 22.7919 10.6743 23.1862C11.7654 23.5806 12.8739 23.7778 14 23.7778ZM14 13.3889C14.6861 13.3889 15.265 13.153 15.7368 12.6812C16.2086 12.2094 16.4444 11.6305 16.4444 10.9444C16.4444 10.2584 16.2086 9.67945 15.7368 9.20767C15.265 8.73589 14.6861 8.5 14 8.5C13.3139 8.5 12.735 8.73589 12.2632 9.20767C11.7914 9.67945 11.5556 10.2584 11.5556 10.9444C11.5556 11.6305 11.7914 12.2094 12.2632 12.6812C12.735 13.153 13.3139 13.3889 14 13.3889Z"/>
</mask>
<path d="M6.90622 20.7039C7.94511 19.9559 9.04756 19.3647 10.2136 18.9304C11.3787 18.4953 12.6409 18.2778 14 18.2778C15.3591 18.2778 16.6213 18.4953 17.7864 18.9304C18.9516 19.3656 20.0541 19.9563 21.0938 20.7027C21.9004 19.8675 22.5494 18.8816 23.0408 17.7449C23.5321 16.6066 23.7778 15.3583 23.7778 14C23.7778 11.2907 22.8257 8.98359 20.9214 7.07856C19.0172 5.17352 16.7101 4.22141 14 4.22222C11.2899 4.22304 8.98278 5.17556 7.07856 7.07978C5.17433 8.984 4.22222 11.2907 4.22222 14C4.22222 15.3583 4.46789 16.6066 4.95922 17.7449C5.45056 18.8824 6.09956 19.8683 6.90622 20.7027M14.0012 14.6111C12.9713 14.6111 12.1023 14.2575 11.3942 13.5502C10.6861 12.843 10.3325 11.9748 10.3333 10.9457C10.3341 9.91656 10.6878 9.04756 11.3942 8.33867C12.1007 7.62978 12.9693 7.27615 14 7.27778C15.0307 7.27941 15.8993 7.63304 16.6058 8.33867C17.3122 9.0443 17.6659 9.91289 17.6667 10.9444C17.6675 11.976 17.3139 12.8446 16.6058 13.5502C15.8977 14.2559 15.0295 14.6095 14.0012 14.6111ZM14 25C12.4657 25 11.0296 24.7144 9.69167 24.1432C8.35374 23.572 7.18937 22.7914 6.19856 21.8014C5.20774 20.8114 4.42715 19.6471 3.85678 18.3083C3.28641 16.9696 3.00082 15.5335 3 14C2.99919 12.4665 3.28478 11.0304 3.85678 9.69167C4.42878 8.35293 5.20937 7.18856 6.19856 6.19856C7.18937 5.20856 8.35374 4.42796 9.69167 3.85678C11.0296 3.28559 12.4657 3 14 3C15.5343 3 16.9704 3.28559 18.3083 3.85678C19.6463 4.42796 20.8106 5.20856 21.8014 6.19856C22.7923 7.18856 23.5729 8.35293 24.1432 9.69167C24.7136 11.0304 24.9992 12.4665 25 14C25.0008 15.5335 24.7152 16.9696 24.1432 18.3083C23.5712 19.6471 22.7906 20.8114 21.8014 21.8014C20.8106 22.7914 19.6463 23.572 18.3083 24.1432C16.9704 24.7144 15.5343 25 14 25ZM14 23.7778C15.1269 23.7778 16.2354 23.5806 17.3257 23.1862C18.4159 22.7927 19.3582 22.2533 20.1527 21.568C19.359 20.93 18.4403 20.426 17.3966 20.0561C16.3528 19.6862 15.2206 19.5008 14 19.5C12.7794 19.4992 11.6431 19.6805 10.5912 20.0439C9.5393 20.4073 8.62426 20.9153 7.84611 21.568C8.64056 22.2524 9.5833 22.7919 10.6743 23.1862C11.7654 23.5806 12.8739 23.7778 14 23.7778ZM14 13.3889C14.6861 13.3889 15.265 13.153 15.7368 12.6812C16.2086 12.2094 16.4444 11.6305 16.4444 10.9444C16.4444 10.2584 16.2086 9.67945 15.7368 9.20767C15.265 8.73589 14.6861 8.5 14 8.5C13.3139 8.5 12.735 8.73589 12.2632 9.20767C11.7914 9.67945 11.5556 10.2584 11.5556 10.9444C11.5556 11.6305 11.7914 12.2094 12.2632 12.6812C12.735 13.153 13.3139 13.3889 14 13.3889Z" fill="#121212"/>
<path d="M10.2136 18.9304L10.2834 19.1179L10.2835 19.1178L10.2136 18.9304ZM21.0938 20.7027L20.9771 20.8651L21.1176 20.9659L21.2376 20.8416L21.0938 20.7027ZM23.0408 17.7449L23.2244 17.8242L23.2244 17.8241L23.0408 17.7449ZM4.95922 17.7449L4.7756 17.8241L4.77562 17.8242L4.95922 17.7449ZM14.0012 14.6111V14.8111H14.0015L14.0012 14.6111ZM6.19856 6.19856L6.05719 6.05708L6.05708 6.05719L6.19856 6.19856ZM21.8014 21.8014L21.9428 21.9429L21.9429 21.9428L21.8014 21.8014ZM14 23.7778V23.5778V23.7778ZM17.3257 23.1862L17.2578 22.9981L17.2576 22.9981L17.3257 23.1862ZM20.1527 21.568L20.2833 21.7194L20.4651 21.5626L20.278 21.4121L20.1527 21.568ZM7.84611 21.568L7.71759 21.4148L7.53733 21.566L7.71557 21.7195L7.84611 21.568ZM6.90622 20.7039L7.02308 20.8662C8.0479 20.1283 9.13458 19.5458 10.2834 19.1179L10.2136 18.9304L10.1437 18.743C8.96053 19.1837 7.84232 19.7835 6.78936 20.5416L6.90622 20.7039ZM10.2136 18.9304L10.2835 19.1178C11.4243 18.6918 12.6626 18.4778 14 18.4778V18.2778V18.0778C12.6192 18.0778 11.3331 18.2989 10.1436 18.7431L10.2136 18.9304ZM14 18.2778V18.4778C15.3374 18.4778 16.5757 18.6918 17.7165 19.1178L17.7864 18.9304L17.8564 18.7431C16.6669 18.2989 15.3808 18.0778 14 18.0778V18.2778ZM17.7864 18.9304L17.7165 19.1178C18.8646 19.5465 19.9514 20.1288 20.9771 20.8651L21.0938 20.7027L21.2104 20.5402C20.1567 19.7838 19.0387 19.1846 17.8564 18.7431L17.7864 18.9304ZM21.0938 20.7027L21.2376 20.8416C22.0621 19.988 22.7241 18.9815 23.2244 17.8242L23.0408 17.7449L22.8572 17.6655C22.3748 18.7816 21.7388 19.747 20.9499 20.5637L21.0938 20.7027ZM23.0408 17.7449L23.2244 17.8241C23.7275 16.6585 23.9778 15.3829 23.9778 14H23.7778H23.5778C23.5778 15.3337 23.3367 16.5547 22.8572 17.6656L23.0408 17.7449ZM23.7778 14H23.9778C23.9778 11.2381 23.0049 8.87995 21.0629 6.93716L20.9214 7.07856L20.78 7.21995C22.6465 9.08723 23.5778 11.3434 23.5778 14H23.7778ZM20.9214 7.07856L21.0629 6.93716C19.1209 4.99433 16.7627 4.02139 13.9999 4.02222L14 4.22222L14.0001 4.42222C16.6574 4.42142 18.9136 5.35271 20.78 7.21995L20.9214 7.07856ZM14 4.22222L13.9999 4.02222C11.2372 4.02305 8.87912 4.99637 6.93713 6.93836L7.07856 7.07978L7.21998 7.2212C9.08644 5.35474 11.3426 4.42302 14.0001 4.42222L14 4.22222ZM7.07856 7.07978L6.93713 6.93836C4.99515 8.88034 4.02222 11.2381 4.02222 14H4.22222H4.42222C4.42222 11.3434 5.35352 9.08766 7.21998 7.2212L7.07856 7.07978ZM4.22222 14H4.02222C4.02222 15.3829 4.27247 16.6585 4.7756 17.8241L4.95922 17.7449L5.14285 17.6656C4.66331 16.5547 4.42222 15.3337 4.42222 14H4.22222ZM4.95922 17.7449L4.77562 17.8242C5.27587 18.9823 5.9379 19.9888 6.76244 20.8417L6.90622 20.7027L7.05001 20.5637C6.26121 19.7478 5.62525 18.7824 5.14283 17.6656L4.95922 17.7449ZM14.0012 14.6111V14.4111C13.0226 14.4111 12.2049 14.0773 11.5356 13.4087L11.3942 13.5502L11.2529 13.6917C11.9997 14.4376 12.92 14.8111 14.0012 14.8111V14.6111ZM11.3942 13.5502L11.5356 13.4087C10.8663 12.7402 10.5326 11.9235 10.5333 10.9458L10.3333 10.9457L10.1333 10.9455C10.1325 12.0261 10.506 12.9457 11.2529 13.6917L11.3942 13.5502ZM10.3333 10.9457L10.5333 10.9458C10.5341 9.96791 10.8679 9.15012 11.5359 8.47984L11.3942 8.33867L11.2526 8.19749C10.5076 8.945 10.1342 9.8652 10.1333 10.9455L10.3333 10.9457ZM11.3942 8.33867L11.5359 8.47984C12.2035 7.80993 13.0204 7.47623 13.9997 7.47778L14 7.27778L14.0003 7.07778C12.9181 7.07607 11.9978 7.44962 11.2526 8.19749L11.3942 8.33867ZM14 7.27778L13.9997 7.47778C14.9794 7.47933 15.7967 7.81325 16.4644 8.48017L16.6058 8.33867L16.7471 8.19716C16.0019 7.45283 15.082 7.07949 14.0003 7.07778L14 7.27778ZM16.6058 8.33867L16.4644 8.48017C17.132 9.14696 17.4659 9.96411 17.4667 10.9446L17.6667 10.9444L17.8667 10.9443C17.8658 9.86166 17.4924 8.94163 16.7471 8.19716L16.6058 8.33867ZM17.6667 10.9444L17.4667 10.9446C17.4674 11.9248 17.1337 12.7418 16.4646 13.4086L16.6058 13.5502L16.747 13.6919C17.494 12.9474 17.8675 12.0272 17.8667 10.9443L17.6667 10.9444ZM16.6058 13.5502L16.4646 13.4086C15.7951 14.0757 14.9781 14.4096 14.0009 14.4111L14.0012 14.6111L14.0015 14.8111C15.081 14.8094 16.0003 14.436 16.747 13.6919L16.6058 13.5502ZM14 25V24.8C12.4912 24.8 11.082 24.5193 9.77019 23.9593L9.69167 24.1432L9.61314 24.3272C10.9772 24.9095 12.4402 25.2 14 25.2V25ZM9.69167 24.1432L9.77019 23.9593C8.45481 23.3977 7.31199 22.6312 6.33992 21.66L6.19856 21.8014L6.05719 21.9429C7.06675 22.9516 8.25268 23.7464 9.61314 24.3272L9.69167 24.1432ZM6.19856 21.8014L6.33992 21.66C5.36793 20.6888 4.6015 19.5461 4.04078 18.2299L3.85678 18.3083L3.67278 18.3867C4.2528 19.7481 5.04755 20.9341 6.05719 21.9429L6.19856 21.8014ZM3.85678 18.3083L4.04078 18.2299C3.48151 16.9173 3.2008 15.5079 3.2 13.9999L3 14L2.8 14.0001C2.80083 15.559 3.0913 17.0219 3.67278 18.3867L3.85678 18.3083ZM3 14L3.2 13.9999C3.1992 12.492 3.47988 11.0828 4.0407 9.77025L3.85678 9.69167L3.67286 9.61309C3.08967 10.978 2.79917 12.441 2.8 14.0001L3 14ZM3.85678 9.69167L4.0407 9.77025C4.60309 8.45399 5.36959 7.31116 6.34004 6.33992L6.19856 6.19856L6.05708 6.05719C5.04915 7.06595 4.25447 8.25186 3.67286 9.61309L3.85678 9.69167ZM6.19856 6.19856L6.33992 6.34004C7.31199 5.36876 8.45481 4.60228 9.77019 4.04072L9.69167 3.85678L9.61314 3.67284C8.25268 4.25365 7.06675 5.04835 6.05719 6.05708L6.19856 6.19856ZM9.69167 3.85678L9.77019 4.04072C11.082 3.4807 12.4912 3.2 14 3.2V3V2.8C12.4402 2.8 10.9772 3.09048 9.61314 3.67284L9.69167 3.85678ZM14 3V3.2C15.5088 3.2 16.918 3.4807 18.2298 4.04072L18.3083 3.85678L18.3869 3.67284C17.0228 3.09048 15.5598 2.8 14 2.8V3ZM18.3083 3.85678L18.2298 4.04072C19.5452 4.60228 20.688 5.36876 21.6601 6.34004L21.8014 6.19856L21.9428 6.05708C20.9332 5.04835 19.7473 4.25365 18.3869 3.67284L18.3083 3.85678ZM21.8014 6.19856L21.6601 6.34004C22.6321 7.31123 23.3985 8.45395 23.9592 9.77006L24.1432 9.69167L24.3272 9.61328C23.7472 8.2519 22.9524 7.06589 21.9428 6.05708L21.8014 6.19856ZM24.1432 9.69167L23.9592 9.77006C24.5185 11.0827 24.7992 12.4921 24.8 14.0001L25 14L25.2 13.9999C25.1992 12.441 24.9087 10.9781 24.3272 9.61328L24.1432 9.69167ZM25 14L24.8 14.0001C24.8008 15.508 24.5201 16.9172 23.9593 18.2298L24.1432 18.3083L24.3271 18.3869C24.9103 17.022 25.2008 15.559 25.2 13.9999L25 14ZM24.1432 18.3083L23.9593 18.2298C23.3969 19.546 22.6304 20.6888 21.66 21.6601L21.8014 21.8014L21.9429 21.9428C22.9508 20.934 23.7455 19.7481 24.3271 18.3869L24.1432 18.3083ZM21.8014 21.8014L21.6601 21.66C20.688 22.6312 19.5452 23.3977 18.2298 23.9593L18.3083 24.1432L18.3869 24.3272C19.7473 23.7464 20.9332 22.9516 21.9428 21.9429L21.8014 21.8014ZM18.3083 24.1432L18.2298 23.9593C16.918 24.5193 15.5088 24.8 14 24.8V25V25.2C15.5598 25.2 17.0228 24.9095 18.3869 24.3272L18.3083 24.1432ZM14 23.7778V23.9778C15.1508 23.9778 16.2823 23.7763 17.3937 23.3743L17.3257 23.1862L17.2576 22.9981C16.1886 23.3849 15.103 23.5778 14 23.5778V23.7778ZM17.3257 23.1862L17.3936 23.3743C18.5044 22.9734 19.4685 22.4222 20.2833 21.7194L20.1527 21.568L20.022 21.4166C19.2479 22.0843 18.3274 22.612 17.2578 22.9981L17.3257 23.1862ZM20.1527 21.568L20.278 21.4121C19.4653 20.7589 18.5265 20.2444 17.4634 19.8676L17.3966 20.0561L17.3297 20.2446C18.3542 20.6077 19.2527 21.1011 20.0274 21.7239L20.1527 21.568ZM17.3966 20.0561L17.4634 19.8676C16.3961 19.4893 15.2411 19.3008 14.0001 19.3L14 19.5L13.9999 19.7C15.2001 19.7008 16.3095 19.883 17.3297 20.2446L17.3966 20.0561ZM14 19.5L14.0001 19.3C12.7594 19.2992 11.6008 19.4835 10.5259 19.8549L10.5912 20.0439L10.6565 20.2329C11.6855 19.8775 12.7994 19.6992 13.9999 19.7L14 19.5ZM10.5912 20.0439L10.5259 19.8549C9.45312 20.2255 8.51616 20.745 7.71759 21.4148L7.84611 21.568L7.97464 21.7212C8.73236 21.0857 9.62547 20.5891 10.6565 20.2329L10.5912 20.0439ZM7.84611 21.568L7.71557 21.7195C8.53033 22.4215 9.49484 22.9725 10.6063 23.3743L10.6743 23.1862L10.7423 22.9981C9.67176 22.6112 8.75079 22.0834 7.97665 21.4165L7.84611 21.568ZM10.6743 23.1862L10.6063 23.3743C11.7185 23.7763 12.85 23.9778 14 23.9778V23.7778V23.5778C12.8978 23.5778 11.8122 23.3849 10.7423 22.9981L10.6743 23.1862ZM14 13.3889V13.5889C14.7374 13.5889 15.3677 13.3331 15.8782 12.8226L15.7368 12.6812L15.5954 12.5398C15.1623 12.9729 14.6347 13.1889 14 13.1889V13.3889ZM15.7368 12.6812L15.8782 12.8226C16.3887 12.3122 16.6444 11.6819 16.6444 10.9444H16.4444H16.2444C16.2444 11.5792 16.0285 12.1067 15.5954 12.5398L15.7368 12.6812ZM16.4444 10.9444H16.6444C16.6444 10.207 16.3887 9.5767 15.8782 9.06625L15.7368 9.20767L15.5954 9.34909C16.0285 9.78219 16.2444 10.3097 16.2444 10.9444H16.4444ZM15.7368 9.20767L15.8782 9.06625C15.3677 8.55579 14.7374 8.3 14 8.3V8.5V8.7C14.6347 8.7 15.1623 8.91599 15.5954 9.34909L15.7368 9.20767ZM14 8.5V8.3C13.2626 8.3 12.6323 8.55579 12.1218 9.06625L12.2632 9.20767L12.4046 9.34909C12.8377 8.91599 13.3653 8.7 14 8.7V8.5ZM12.2632 9.20767L12.1218 9.06625C11.6113 9.5767 11.3556 10.207 11.3556 10.9444H11.5556H11.7556C11.7556 10.3097 11.9715 9.78219 12.4046 9.34909L12.2632 9.20767ZM11.5556 10.9444H11.3556C11.3556 11.6819 11.6113 12.3122 12.1218 12.8226L12.2632 12.6812L12.4046 12.5398C11.9715 12.1067 11.7556 11.5792 11.7556 10.9444H11.5556ZM12.2632 12.6812L12.1218 12.8226C12.6323 13.3331 13.2626 13.5889 14 13.5889V13.3889V13.1889C13.3653 13.1889 12.8377 12.9729 12.4046 12.5398L12.2632 12.6812Z" fill="#121212" mask="url(#path-1-outside-1_4980_19675)"/>
</svg>
