<svg width="42" height="42" viewBox="0 0 42 42" fill="none" xmlns="http://www.w3.org/2000/svg">
<g clip-path="url(#clip0_25_1195)">
<path d="M12 8.2002C9.90132 8.2002 8.2002 9.90132 8.2002 12V30C8.2002 32.0987 9.90132 33.7998 12 33.7998H30C32.0987 33.7998 33.7998 32.0987 33.7998 30V12C33.7998 9.90132 32.0987 8.2002 30 8.2002H12ZM26.5049 21.126C26.7782 20.8528 27.2218 20.8528 27.4951 21.126L32.2002 25.8311V30C32.2002 31.215 31.215 32.2002 30 32.2002H12C10.785 32.2002 9.7998 31.215 9.7998 30V28.0811L13.083 24.7979C13.3416 24.5392 13.7565 24.5237 14.0342 24.7617L17.1748 27.4531C18.0873 28.2353 19.448 28.1828 20.2979 27.333L26.5049 21.126ZM30 9.7998C31.215 9.7998 32.2002 10.785 32.2002 12V23.5693L28.626 19.9951C27.7278 19.0971 26.2722 19.0971 25.374 19.9951L19.167 26.2021C18.9083 26.4608 18.4935 26.4763 18.2158 26.2383L15.0752 23.5469C14.1627 22.7647 12.802 22.8172 11.9521 23.667L9.7998 25.8193V12C9.7998 10.785 10.785 9.79981 12 9.7998H30ZM15.75 12.75C14.0931 12.75 12.75 14.0931 12.75 15.75C12.75 17.4069 14.0931 18.75 15.75 18.75C17.4069 18.75 18.75 17.4069 18.75 15.75C18.75 14.0931 17.4069 12.75 15.75 12.75ZM15.75 14.3496C16.5232 14.3496 17.1504 14.9768 17.1504 15.75C17.1504 16.5232 16.5232 17.1504 15.75 17.1504C14.9768 17.1504 14.3496 16.5232 14.3496 15.75C14.3496 14.9768 14.9768 14.3496 15.75 14.3496Z" fill="#0E70E3"/>
</g>
<defs>
<clipPath id="clip0_25_1195">
<rect width="42" height="42" fill="white"/>
</clipPath>
</defs>
</svg>
