<svg width="20" height="18" viewBox="0 0 20 18" fill="none" xmlns="http://www.w3.org/2000/svg">
<path d="M7.15 10.8889H12.85M19.5 15.6111C19.5 16.1121 19.2998 16.5925 18.9435 16.9468C18.5872 17.301 18.1039 17.5 17.6 17.5H2.4C1.89609 17.5 1.41282 17.301 1.0565 16.9468C0.700178 16.5925 0.5 16.1121 0.5 15.6111V2.38889C0.5 1.88792 0.700178 1.40748 1.0565 1.05324C1.41282 0.699007 1.89609 0.5 2.4 0.5H7.15L9.05 3.33333H17.6C18.1039 3.33333 18.5872 3.53234 18.9435 3.88658C19.2998 4.24081 19.5 4.72126 19.5 5.22222V15.6111Z" stroke="#757575" stroke-linecap="round" stroke-linejoin="round"/>
</svg>
