<svg width="25" height="25" viewBox="0 0 25 25" fill="none" xmlns="http://www.w3.org/2000/svg">
<g clip-path="url(#clip0_2631_51197)">
<path d="M6.20564 6.20647C6.55711 5.855 7.12751 5.855 7.47898 6.20647L12.4992 11.2267L17.5193 6.20647C17.8708 5.855 18.4412 5.855 18.7927 6.20647C19.1442 6.55795 19.1442 7.12835 18.7927 7.47982L13.7725 12.5L18.7927 17.5202C19.1442 17.8717 19.1442 18.4421 18.7927 18.7935C18.4412 19.145 17.8708 19.145 17.5193 18.7935L12.4992 13.7733L7.47898 18.7935C7.12751 19.145 6.55711 19.145 6.20564 18.7935C5.85416 18.4421 5.85416 17.8717 6.20564 17.5202L11.2258 12.5L6.20564 7.47982C5.85416 7.12835 5.85416 6.55795 6.20564 6.20647Z" fill="#121212"/>
</g>
<defs>
<clipPath id="clip0_2631_51197">
<rect width="25" height="25" fill="white"/>
</clipPath>
</defs>
</svg>
