<svg width="28" height="28" viewBox="0 0 28 28" fill="none" xmlns="http://www.w3.org/2000/svg">
<path d="M10.65 15.3889H16.35M23 20.1111C23 20.6121 22.7998 21.0925 22.4435 21.4468C22.0872 21.801 21.6039 22 21.1 22H5.9C5.39609 22 4.91282 21.801 4.5565 21.4468C4.20018 21.0925 4 20.6121 4 20.1111V6.88889C4 6.38792 4.20018 5.90748 4.5565 5.55324C4.91282 5.19901 5.39609 5 5.9 5H10.65L12.55 7.83333H21.1C21.6039 7.83333 22.0872 8.03234 22.4435 8.38658C22.7998 8.74081 23 9.22126 23 9.72222V20.1111Z" stroke="#757575" stroke-linecap="round" stroke-linejoin="round"/>
</svg>
