<svg width="24" height="24" viewBox="0 0 24 24" fill="none" xmlns="http://www.w3.org/2000/svg">
<path d="M16.038 8.001C15.8973 7.861 15.827 7.68767 15.827 7.481C15.827 7.27433 15.897 7.101 16.037 6.961C16.1777 6.82033 16.351 6.75 16.557 6.75C16.763 6.75 16.9367 6.82 17.078 6.96C17.218 7.10067 17.288 7.274 17.288 7.48C17.288 7.686 17.218 7.85967 17.078 8.001C16.938 8.14233 16.7647 8.21233 16.558 8.211C16.3513 8.20967 16.178 8.13967 16.038 8.001ZM9.154 13.692L11.046 11.231L12.635 13.116L15.089 10.039L17.846 13.692H9.154ZM5.116 20C4.65533 20 4.271 19.846 3.963 19.538C3.655 19.23 3.50067 18.8457 3.5 18.385V6.615H4.5V18.385C4.5 18.5383 4.564 18.6793 4.692 18.808C4.82 18.9367 4.961 19.0007 5.115 19H16.885V20H5.116ZM6.5 9.183V4.616C6.5 4.15533 6.65433 3.771 6.963 3.463C7.27167 3.155 7.656 3.00067 8.116 3H12.308V4H8.116C7.962 4 7.82067 4.064 7.692 4.192C7.56333 4.32 7.49933 4.461 7.5 4.615V9.183H6.5ZM8.116 17C7.65533 17 7.271 16.846 6.963 16.538C6.655 16.23 6.50067 15.8457 6.5 15.385V11.567H7.5V15.385C7.5 15.5383 7.564 15.6793 7.692 15.808C7.82 15.9367 7.961 16.0007 8.115 16H12.308V17H8.116ZM14.692 17V16H18.885C19.0383 16 19.1793 15.936 19.308 15.808C19.4367 15.68 19.5007 15.539 19.5 15.385V11.567H20.5V15.385C20.5 15.845 20.346 16.2293 20.038 16.538C19.73 16.8467 19.3453 17.0007 18.884 17H14.692ZM19.5 9.183V4.616C19.5 4.462 19.436 4.32067 19.308 4.192C19.18 4.06333 19.0387 3.99933 18.884 4H14.692V3H18.885C19.345 3 19.7293 3.15433 20.038 3.463C20.3467 3.77167 20.5007 4.15567 20.5 4.615V9.183H19.5Z" fill="#0E70E3"/>
</svg>
