<svg width="28" height="28" viewBox="0 0 28 28" fill="none" xmlns="http://www.w3.org/2000/svg">
<path d="M5.83398 3.5H21.0007C21.9289 3.5 22.8191 3.86875 23.4755 4.52513C24.1319 5.1815 24.5007 6.07174 24.5007 7V22.1667C24.5007 23.0949 24.1319 23.9852 23.4755 24.6415C22.8191 25.2979 21.9289 25.6667 21.0007 25.6667H5.83398C4.90573 25.6667 4.01549 25.2979 3.35911 24.6415C2.70273 23.9852 2.33398 23.0949 2.33398 22.1667V7C2.33398 6.07174 2.70273 5.1815 3.35911 4.52513C4.01549 3.86875 4.90573 3.5 5.83398 3.5ZM5.83398 4.66667C5.21515 4.66667 4.62165 4.9125 4.18407 5.35008C3.74648 5.78767 3.50065 6.38116 3.50065 7V20.5217L8.50565 15.505L11.4223 18.4217L17.2557 12.5883L23.334 18.6667V7C23.334 6.38116 23.0882 5.78767 22.6506 5.35008C22.213 4.9125 21.6195 4.66667 21.0007 4.66667H5.83398ZM11.4223 20.0783L8.50565 17.1617L3.50065 22.1667C3.50065 22.7855 3.74648 23.379 4.18407 23.8166C4.62165 24.2542 5.21515 24.5 5.83398 24.5H21.0007C21.6195 24.5 22.213 24.2542 22.6506 23.8166C23.0882 23.379 23.334 22.7855 23.334 22.1667V20.3117L17.2557 14.245L11.4223 20.0783ZM8.75065 7C9.5242 7 10.2661 7.30729 10.813 7.85427C11.36 8.40125 11.6673 9.14312 11.6673 9.91667C11.6673 10.6902 11.36 11.4321 10.813 11.9791C10.2661 12.526 9.5242 12.8333 8.75065 12.8333C7.9771 12.8333 7.23524 12.526 6.68826 11.9791C6.14127 11.4321 5.83398 10.6902 5.83398 9.91667C5.83398 9.14312 6.14127 8.40125 6.68826 7.85427C7.23524 7.30729 7.9771 7 8.75065 7ZM8.75065 8.16667C8.28652 8.16667 7.8414 8.35104 7.51321 8.67923C7.18503 9.00742 7.00065 9.45254 7.00065 9.91667C7.00065 10.3808 7.18503 10.8259 7.51321 11.1541C7.8414 11.4823 8.28652 11.6667 8.75065 11.6667C9.21478 11.6667 9.6599 11.4823 9.98809 11.1541C10.3163 10.8259 10.5007 10.3808 10.5007 9.91667C10.5007 9.45254 10.3163 9.00742 9.98809 8.67923C9.6599 8.35104 9.21478 8.16667 8.75065 8.16667Z" fill="#121212"/>
</svg>
