<svg width="24" height="24" viewBox="0 0 24 24" fill="none" xmlns="http://www.w3.org/2000/svg">
<rect width="24" height="24" fill="#121212"/>
<path d="M8.28365 16.0156C8.53537 16.1934 8.83613 16.2885 9.14428 16.2877C9.45243 16.2869 9.75272 16.1904 10.0035 16.0113C10.2578 15.8256 10.4507 15.5684 10.5564 15.2713L11.1949 13.3096C11.3588 12.8179 11.6347 12.3711 12.0008 12.0044C12.367 11.6377 12.8134 11.3611 13.3048 11.1965L15.2918 10.5536C15.5856 10.4472 15.8386 10.2514 16.0152 9.99355C16.1917 9.73575 16.283 9.42904 16.276 9.11662C16.2691 8.80421 16.1643 8.50185 15.9765 8.25215C15.7886 8.00245 15.5272 7.81799 15.229 7.72477L13.2648 7.0847C12.7729 6.92101 12.3259 6.64514 11.9589 6.2789C11.592 5.91267 11.3153 5.4661 11.1506 4.97448L10.5049 2.99142C10.401 2.69927 10.2086 2.44679 9.95443 2.26911C9.70031 2.09143 9.39714 1.99738 9.0871 2.00006C8.77705 2.00273 8.47555 2.10198 8.22453 2.28402C7.97351 2.46605 7.78546 2.72181 7.68654 3.01571L7.03372 5.01592C6.86984 5.49435 6.59957 5.92936 6.24326 6.28819C5.88696 6.64703 5.4539 6.92035 4.97669 7.08756L2.99109 7.72619C2.6991 7.8304 2.4468 8.02295 2.2692 8.2771C2.09161 8.53125 1.99754 8.8344 2.00005 9.14447C2.00256 9.45453 2.10153 9.75611 2.28322 10.0074C2.46491 10.2586 2.72031 10.447 3.01395 10.5465L4.97669 11.1823C5.47105 11.3463 5.92001 11.6242 6.28746 11.9934C6.6549 12.3626 6.93057 12.813 7.09229 13.3082L7.73796 15.2955C7.84081 15.587 8.03223 15.8385 8.28365 16.0156ZM17.0503 21.7905C17.1964 21.8932 17.3644 21.9606 17.5411 21.9872C17.7177 22.0138 17.8981 21.9989 18.068 21.9437C18.2379 21.8886 18.3926 21.7946 18.5199 21.6693C18.6473 21.5441 18.7437 21.3909 18.8016 21.2219L19.1559 20.1332C19.2326 19.9076 19.3596 19.7024 19.5273 19.5331C19.6959 19.3617 19.9016 19.2359 20.1273 19.1616L21.2301 18.8016C21.4576 18.7231 21.6546 18.5746 21.7928 18.3775C21.931 18.1804 22.0035 17.9446 21.9999 17.7039C21.9962 17.4631 21.9167 17.2297 21.7725 17.0368C21.6284 16.844 21.427 16.7016 21.1972 16.63L20.1058 16.2728C19.8802 16.1972 19.6751 16.0704 19.5066 15.9024C19.3381 15.7343 19.2107 15.5296 19.1345 15.3041L18.7745 14.1997C18.6972 13.9726 18.5504 13.7755 18.3548 13.6365C18.1593 13.4974 17.925 13.4235 17.6851 13.425C17.4452 13.4266 17.2119 13.5037 17.0182 13.6453C16.8245 13.7869 16.6803 13.9859 16.606 14.214L16.2532 15.3027C16.1803 15.5266 16.0566 15.7307 15.8918 15.899C15.727 16.0673 15.5256 16.1952 15.3032 16.2728L14.199 16.6328C13.9718 16.7098 13.7746 16.8564 13.6353 17.0518C13.4961 17.2472 13.4218 17.4814 13.4231 17.7213C13.4243 17.9613 13.5011 18.1947 13.6424 18.3886C13.7837 18.5825 13.9824 18.727 14.2105 18.8016L15.3004 19.1545C15.5289 19.2317 15.7347 19.3588 15.9032 19.5274C16.0732 19.6974 16.1989 19.9032 16.2718 20.1303L16.6332 21.2361C16.7114 21.4597 16.8572 21.6534 17.0503 21.7905Z" fill="white"/>
</svg>
