<svg width="24" height="24" viewBox="0 0 24 24" fill="none" xmlns="http://www.w3.org/2000/svg">
<path d="M7.54038 16.8187C7.84244 17.0321 8.20336 17.1462 8.57314 17.1453C8.94292 17.1443 9.30326 17.0284 9.60426 16.8136C9.90938 16.5907 10.1408 16.2821 10.2676 15.9255L11.0339 13.5715C11.2305 12.9815 11.5616 12.4453 12.001 12.0053C12.4404 11.5652 12.9761 11.2333 13.5657 11.0359L15.9502 10.2644C16.3027 10.1367 16.6063 9.90163 16.8182 9.59226C17.0301 9.2829 17.1396 8.91484 17.1313 8.53995C17.1229 8.16505 16.9972 7.80222 16.7718 7.50258C16.5464 7.20294 16.2326 6.98159 15.8748 6.86972L13.5177 6.10164C12.9275 5.90521 12.391 5.57417 11.9507 5.13468C11.5104 4.6952 11.1783 4.15931 10.9808 3.56938L10.2059 1.18971C10.0812 0.839124 9.85026 0.536149 9.54532 0.322932C9.24038 0.109715 8.87657 -0.00313979 8.50452 6.64728e-05C8.13246 0.00327274 7.77065 0.122381 7.46943 0.340821C7.16821 0.559262 6.94255 0.866172 6.82385 1.21885L6.04046 3.6191C5.84381 4.19322 5.51948 4.71523 5.09192 5.14583C4.66435 5.57644 4.14468 5.90441 3.57203 6.10507L1.18931 6.87143C0.838922 6.99648 0.536155 7.22754 0.323042 7.53252C0.109929 7.83751 -0.00295644 8.20129 5.887e-05 8.57336C0.00307418 8.94543 0.12184 9.30733 0.339868 9.60882C0.557896 9.91031 0.864369 10.1364 1.21674 10.2558L3.57203 11.0187C4.16527 11.2156 4.70402 11.549 5.14495 11.9921C5.58588 12.4352 5.91668 12.9756 6.11074 13.5698L6.88556 15.9546C7.00898 16.3044 7.23868 16.6061 7.54038 16.8187ZM18.0603 23.7486C18.2357 23.8719 18.4373 23.9527 18.6493 23.9846C18.8612 24.0165 19.0777 23.9987 19.2816 23.9325C19.4854 23.8663 19.6711 23.7536 19.8239 23.6032C19.9767 23.4529 20.0924 23.269 20.1619 23.0662L20.5871 21.7598C20.6791 21.4891 20.8315 21.2429 21.0328 21.0397C21.235 20.834 21.4819 20.6831 21.7527 20.594L23.0761 20.1619C23.3491 20.0677 23.5855 19.8896 23.7514 19.653C23.9173 19.4165 24.0042 19.1336 23.9998 18.8447C23.9955 18.5558 23.9 18.2756 23.727 18.0442C23.5541 17.8128 23.3124 17.6419 23.0366 17.556L21.727 17.1273C21.4562 17.0366 21.2101 16.8845 21.0079 16.6828C20.8057 16.4812 20.6529 16.2355 20.5613 15.9649L20.1294 14.6397C20.0366 14.3671 19.8604 14.1306 19.6258 13.9638C19.3912 13.7969 19.11 13.7082 18.8221 13.7101C18.5342 13.7119 18.2543 13.8044 18.0219 13.9743C17.7894 14.1443 17.6164 14.383 17.5272 14.6568L17.1038 15.9632C17.0163 16.232 16.8679 16.4769 16.6702 16.6788C16.4724 16.8807 16.2307 17.0342 15.9639 17.1273L14.6388 17.5594C14.3662 17.6518 14.1295 17.8277 13.9624 18.0621C13.7953 18.2966 13.7062 18.5777 13.7077 18.8656C13.7092 19.1535 13.8013 19.4337 13.9709 19.6663C14.1404 19.899 14.3789 20.0724 14.6525 20.1619L15.9605 20.5854C16.2347 20.678 16.4816 20.8306 16.6839 21.0329C16.8878 21.2369 17.0387 21.4838 17.1261 21.7564L17.5598 23.0834C17.6537 23.3516 17.8286 23.5841 18.0603 23.7486Z" fill="url(#paint0_linear_892_17108)"/>
<defs>
<linearGradient id="paint0_linear_892_17108" x1="8.5" y1="2" x2="26.5" y2="26.5" gradientUnits="userSpaceOnUse">
<stop offset="0.0576923" stop-color="#36DEFF"/>
<stop offset="0.355051" stop-color="#1AC2F5"/>
<stop offset="0.821886" stop-color="#0088FF"/>
</linearGradient>
</defs>
</svg>
