<svg width="28" height="28" viewBox="0 0 28 28" fill="none" xmlns="http://www.w3.org/2000/svg">
<path d="M13.4173 9.33333C16.334 9.33333 18.6673 11.6667 18.6673 14.5833C18.6673 17.5 16.334 19.8333 13.4173 19.8333C10.5007 19.8333 8.16732 17.5 8.16732 14.5833C8.16732 11.6667 10.5007 9.33333 13.4173 9.33333ZM13.4173 10.5C12.3343 10.5 11.2957 10.9302 10.53 11.696C9.76419 12.4618 9.33398 13.5004 9.33398 14.5833C9.33398 15.6663 9.76419 16.7049 10.53 17.4707C11.2957 18.2365 12.3343 18.6667 13.4173 18.6667C14.5003 18.6667 15.5389 18.2365 16.3047 17.4707C17.0704 16.7049 17.5007 15.6663 17.5007 14.5833C17.5007 13.5004 17.0704 12.4618 16.3047 11.696C15.5389 10.9302 14.5003 10.5 13.4173 10.5ZM5.83398 5.83333H8.16732L10.5007 3.5H16.334L18.6673 5.83333H21.0007C21.9289 5.83333 22.8191 6.20208 23.4755 6.85846C24.1319 7.51484 24.5007 8.40508 24.5007 9.33333V19.8333C24.5007 20.7616 24.1319 21.6518 23.4755 22.3082C22.8191 22.9646 21.9289 23.3333 21.0007 23.3333H5.83398C4.90573 23.3333 4.01549 22.9646 3.35911 22.3082C2.70273 21.6518 2.33398 20.7616 2.33398 19.8333V9.33333C2.33398 8.40508 2.70273 7.51484 3.35911 6.85846C4.01549 6.20208 4.90573 5.83333 5.83398 5.83333ZM10.979 4.66667L8.64565 7H5.83398C5.21515 7 4.62165 7.24583 4.18407 7.68342C3.74648 8.121 3.50065 8.7145 3.50065 9.33333V19.8333C3.50065 20.4522 3.74648 21.0457 4.18407 21.4832C4.62165 21.9208 5.21515 22.1667 5.83398 22.1667H21.0007C21.6195 22.1667 22.213 21.9208 22.6506 21.4832C23.0882 21.0457 23.334 20.4522 23.334 19.8333V9.33333C23.334 8.7145 23.0882 8.121 22.6506 7.68342C22.213 7.24583 21.6195 7 21.0007 7H18.189L15.8557 4.66667H10.979Z" fill="#121212"/>
</svg>
