<svg width="21" height="23" viewBox="0 0 21 23" fill="none" xmlns="http://www.w3.org/2000/svg">
<path d="M20.5599 17.5343C20.1828 18.3204 19.7366 19.044 19.2195 19.7093C18.5147 20.6162 17.9376 21.2439 17.4928 21.5925C16.8034 22.1647 16.0647 22.4578 15.2737 22.4745C14.7058 22.4745 14.021 22.3286 13.2239 22.0328C12.4241 21.7384 11.6891 21.5925 11.0171 21.5925C10.3123 21.5925 9.55634 21.7384 8.7478 22.0328C7.93802 22.3286 7.28567 22.4828 6.78691 22.4981C6.02838 22.5272 5.27231 22.2259 4.51763 21.5925C4.03595 21.2134 3.43347 20.5634 2.71172 19.6426C1.93734 18.6593 1.30069 17.5191 0.801927 16.2191C0.267771 14.815 0 13.4553 0 12.1389C0 10.6311 0.361029 9.33055 1.08416 8.24073C1.65248 7.36534 2.40855 6.6748 3.35483 6.16787C4.30111 5.66094 5.32356 5.40262 6.42465 5.38609C7.02714 5.38609 7.81721 5.55428 8.79904 5.88482C9.7781 6.21648 10.4067 6.38467 10.6824 6.38467C10.8884 6.38467 11.5868 6.18801 12.7707 5.79594C13.8902 5.43234 14.8351 5.28179 15.6092 5.34109C17.7067 5.49386 19.2826 6.24009 20.3306 7.58449C18.4546 8.6103 17.5267 10.0471 17.5451 11.8902C17.5621 13.3258 18.1392 14.5205 19.2733 15.4691C19.7873 15.9094 20.3614 16.2496 21 16.4913C20.8615 16.8538 20.7153 17.201 20.5599 17.5343ZM15.7492 0.450128C15.7492 1.57538 15.2937 2.62603 14.3858 3.5985C13.29 4.75458 11.9647 5.42262 10.5275 5.3172C10.5092 5.18221 10.4986 5.04013 10.4986 4.89083C10.4986 3.81058 11.0197 2.65451 11.945 1.70926C12.407 1.23066 12.9946 0.832714 13.7071 0.515264C14.4181 0.202552 15.0906 0.0296147 15.7231 0C15.7415 0.150429 15.7492 0.300883 15.7492 0.450128Z" fill="white"/>
</svg>
