<svg width="21" height="22" viewBox="0 0 21 22" fill="none" xmlns="http://www.w3.org/2000/svg">
<path d="M10.714 8.766V12.916H16.48C16.227 14.25 15.467 15.38 14.328 16.14L17.805 18.838C19.831 16.968 21 14.221 21 10.958C21 10.198 20.932 9.468 20.805 8.766L10.714 8.766Z" fill="#4285F4"/>
<path d="M4.71 12.754L3.925 13.354L1.149 15.517C2.912 19.013 6.526 21.429 10.714 21.429C13.607 21.429 16.032 20.474 17.805 18.838L14.328 16.14C13.373 16.783 12.156 17.172 10.714 17.172C7.928 17.172 5.561 15.293 4.714 12.76L4.71 12.754Z" fill="#34A853"/>
<path d="M1.149 5.913C0.419 7.354 0 8.981 0 10.714C0 12.448 0.419 14.075 1.149 15.517C1.149 15.526 4.714 12.75 4.714 12.75C4.5 12.107 4.373 11.425 4.373 10.714C4.373 10.003 4.5 9.321 4.714 8.679L1.149 5.913Z" fill="#FBBC05"/>
<path d="M10.714 4.266C12.292 4.266 13.695 4.812 14.815 5.864L17.883 2.796C16.023 1.062 13.607 0 10.714 0C6.526 0 2.912 2.406 1.149 5.913L4.714 8.679C5.562 6.146 7.929 4.266 10.714 4.266Z" fill="#EA4335"/>
</svg>
