<svg width="32" height="32" viewBox="0 0 32 32" fill="none" xmlns="http://www.w3.org/2000/svg">
<rect width="32" height="32" rx="16" fill="#0088FF" fill-opacity="0.1"/>
<g clip-path="url(#clip0_783_13368)">
<path d="M9.63627 22.363C8.77667 21.5328 8.09103 20.5397 7.61935 19.4416C7.14767 18.3436 6.8994 17.1626 6.88901 15.9676C6.87863 14.7726 7.10634 13.5875 7.55887 12.4814C8.0114 11.3753 8.67968 10.3705 9.52471 9.52544C10.3697 8.68041 11.3746 8.01213 12.4807 7.5596C13.5867 7.10708 14.7719 6.87936 15.9669 6.88974C17.1619 6.90013 18.3429 7.1484 19.4409 7.62009C20.5389 8.09177 21.532 8.77741 22.3623 9.637C24.0017 11.3344 24.9088 13.6078 24.8883 15.9676C24.8678 18.3274 23.9213 20.5847 22.2526 22.2534C20.584 23.922 18.3266 24.8686 15.9669 24.8891C13.6071 24.9096 11.3337 24.0024 9.63627 22.363ZM15.0993 16.9V20.5H16.8993V15.1H15.0993V16.9ZM15.0993 11.5V13.3H16.8993V11.5H15.0993Z" fill="#0088FF"/>
</g>
<defs>
<clipPath id="clip0_783_13368">
<rect width="18" height="18" fill="white" transform="translate(7 7)"/>
</clipPath>
</defs>
</svg>
