<svg width="72" height="72" viewBox="0 0 72 72" fill="none" xmlns="http://www.w3.org/2000/svg">
<mask id="mask0_2574_58008" style="mask-type:luminance" maskUnits="userSpaceOnUse" x="3" y="3" width="66" height="66">
<path d="M36 66C39.9404 66.0049 43.8429 65.2311 47.4833 63.7232C51.1237 62.2152 54.4303 60.0028 57.213 57.213C60.0028 54.4303 62.2152 51.1237 63.7232 47.4833C65.2311 43.8429 66.0049 39.9404 66 36C66.0049 32.0597 65.2311 28.1572 63.7232 24.5168C62.2152 20.8764 60.0028 17.5698 57.213 14.787C54.4303 11.9973 51.1237 9.78485 47.4833 8.2769C43.8429 6.76894 39.9404 5.99516 36 6.00002C32.0597 5.99516 28.1572 6.76894 24.5168 8.2769C20.8764 9.78485 17.5698 11.9973 14.787 14.787C11.9973 17.5698 9.78485 20.8764 8.2769 24.5168C6.76894 28.1572 5.99516 32.0597 6.00002 36C5.99516 39.9404 6.76894 43.8429 8.2769 47.4833C9.78485 51.1237 11.9973 54.4303 14.787 57.213C17.5698 60.0028 20.8764 62.2152 24.5168 63.7232C28.1572 65.2311 32.0597 66.0049 36 66Z" fill="white" stroke="white" stroke-width="6" stroke-linejoin="round"/>
<path d="M24 36L33 45L51 27" stroke="black" stroke-width="6" stroke-linecap="round" stroke-linejoin="round"/>
</mask>
<g mask="url(#mask0_2574_58008)">
<path d="M0 0H72V72H0V0Z" fill="#0088FF"/>
</g>
</svg>
