<svg width="18" height="15" viewBox="0 0 18 15" fill="none" xmlns="http://www.w3.org/2000/svg">
<path fill-rule="evenodd" clip-rule="evenodd" d="M0.599998 15L17.4 15C17.7312 15 18 14.7416 18 14.4232L18 9.80841C18 9.48942 17.7312 9.23157 17.4 9.23157C17.0688 9.23157 16.8 9.48942 16.8 9.80841L16.8 13.8463L1.2 13.8463L1.2 9.80841C1.2 9.48942 0.931199 9.23157 0.599999 9.23157C0.268799 9.23157 -1.4256e-06 9.48942 -1.45349e-06 9.80841L-1.85692e-06 14.4232C-1.88481e-06 14.7421 0.268799 15 0.599998 15ZM6.4398 4.44378L8.4 2.15947L8.4 10.3841C8.4 10.7031 8.6688 10.9621 9 10.9621C9.3312 10.9621 9.6 10.7031 9.6 10.3841L9.6 2.13757L11.5788 4.44378C11.814 4.67164 12.1956 4.67164 12.4308 4.44378C12.666 4.21708 12.666 3.84847 12.4308 3.62119L9.4656 0.165344C9.3402 0.0442078 9.174 -0.00772744 9.0096 0.000925232C8.8452 -0.00772747 8.6784 0.0442077 8.553 0.165344L5.5878 3.62119C5.3526 3.84847 5.3526 4.21708 5.5878 4.44378C5.823 4.67164 6.2046 4.67164 6.4398 4.44378Z" fill="#757575"/>
</svg>
