<svg width="24" height="24" viewBox="0 0 24 24" fill="none" xmlns="http://www.w3.org/2000/svg">
<g clip-path="url(#clip0_2629_47736)">
<path d="M0 12C0 5.37258 5.37258 0 12 0C18.6274 0 24 5.37258 24 12C24 18.6274 18.6274 24 12 24C5.37258 24 0 18.6274 0 12Z" fill="#E6EBF4"/>
<path d="M15.7947 7.21956C16.0875 6.92674 16.5623 6.92688 16.8553 7.21956C17.1482 7.51246 17.1482 7.98722 16.8553 8.28011L13.0974 12.0369L16.8582 15.7977C17.1504 16.0906 17.1508 16.5656 16.8582 16.8582C16.5654 17.151 16.0896 17.1508 15.7967 16.8582L12.0369 13.0985L8.28006 16.8563C7.98724 17.1488 7.51233 17.1488 7.21952 16.8563C6.92673 16.5635 6.92693 16.0887 7.21952 15.7957L10.9764 12.0369L7.22147 8.28206C6.92862 7.98917 6.92859 7.5144 7.22147 7.22152C7.51435 6.9287 7.98914 6.92869 8.28202 7.22152L12.0369 10.9764L15.7947 7.21956Z" fill="#757575"/>
</g>
<defs>
<clipPath id="clip0_2629_47736">
<path d="M0 12C0 5.37258 5.37258 0 12 0C18.6274 0 24 5.37258 24 12C24 18.6274 18.6274 24 12 24C5.37258 24 0 18.6274 0 12Z" fill="white"/>
</clipPath>
</defs>
</svg>
