<svg width="42" height="42" viewBox="0 0 42 42" fill="none" xmlns="http://www.w3.org/2000/svg">
<g clip-path="url(#clip0_25_1187)">
<path d="M26.167 9.96289C27.7786 9.96294 29.2098 10.9937 29.7197 12.5225C30.0117 13.3981 30.8309 13.9892 31.7539 13.9893H32C34.0987 13.9893 35.7998 15.6904 35.7998 17.7891V29.2373C35.7998 31.336 34.0987 33.0371 32 33.0371H12.5C10.4013 33.0371 8.7002 31.336 8.7002 29.2373V17.7891C8.7002 15.6904 10.4013 13.9893 12.5 13.9893H12.7461C13.6688 13.9893 14.4884 13.3988 14.7803 12.5234C15.2898 10.9945 16.7204 9.96289 18.332 9.96289H26.167ZM18.332 11.5625C17.4093 11.5625 16.5897 12.153 16.2979 13.0283C15.7883 14.5573 14.3577 15.5889 12.7461 15.5889H12.5C11.285 15.5889 10.2998 16.574 10.2998 17.7891V29.2373C10.2998 30.4523 11.285 31.4375 12.5 31.4375H32C33.215 31.4375 34.2002 30.4523 34.2002 29.2373V17.7891C34.2002 16.574 33.215 15.5889 32 15.5889H31.7539C30.1423 15.5888 28.7111 14.5581 28.2012 13.0293C27.9092 12.1537 27.09 11.5625 26.167 11.5625H18.332ZM22.25 16.2002C25.5913 16.2002 28.2998 18.9087 28.2998 22.25C28.2998 25.5913 25.5913 28.2998 22.25 28.2998C18.9087 28.2998 16.2002 25.5913 16.2002 22.25C16.2002 18.9087 18.9087 16.2002 22.25 16.2002ZM22.25 17.7998C19.7923 17.7998 17.7998 19.7923 17.7998 22.25C17.7998 24.7077 19.7923 26.7002 22.25 26.7002C24.7077 26.7002 26.7002 24.7077 26.7002 22.25C26.7002 19.7923 24.7077 17.7998 22.25 17.7998Z" fill="#0E70E3"/>
</g>
<defs>
<clipPath id="clip0_25_1187">
<rect width="42" height="42" fill="white"/>
</clipPath>
</defs>
</svg>
