<svg width="17" height="17" viewBox="0 0 17 17" fill="none" xmlns="http://www.w3.org/2000/svg">
<path fill-rule="evenodd" clip-rule="evenodd" d="M8.33333 16.6667C3.73083 16.6667 0 12.9358 0 8.33333C0 3.73083 3.73083 0 8.33333 0C12.9358 0 16.6667 3.73083 16.6667 8.33333C16.6667 12.9358 12.9358 16.6667 8.33333 16.6667ZM8.33333 15.6667C10.2783 15.6667 12.1435 14.894 13.5188 13.5188C14.894 12.1435 15.6667 10.2783 15.6667 8.33333C15.6667 6.38841 14.894 4.52315 13.5188 3.14788C12.1435 1.77262 10.2783 1 8.33333 1C6.38841 1 4.52315 1.77262 3.14788 3.14788C1.77262 4.52315 1 6.38841 1 8.33333C1 10.2783 1.77262 12.1435 3.14788 13.5188C4.52315 14.894 6.38841 15.6667 8.33333 15.6667ZM5.83333 6.4225C5.8975 5.16667 6.73417 4.16667 8.36833 4.16667C9.83333 4.16667 10.8333 5.07333 10.8333 6.27167C10.8333 7.18417 10.3625 7.83 9.61833 8.2775C8.88 8.71333 8.67083 9.03917 8.67083 9.64917V10.0275H7.65333V9.4925C7.6475 8.725 8.02 8.20083 8.81583 7.725C9.49083 7.31167 9.75167 6.94583 9.75167 6.32333C9.75167 5.6025 9.19333 5.07333 8.3275 5.07333C7.45 5.07333 6.89167 5.59083 6.8275 6.4225H5.83333ZM8.165 12.6783C8.07765 12.6795 7.99096 12.6631 7.91003 12.6302C7.8291 12.5973 7.75557 12.5486 7.69376 12.4868C7.63195 12.4251 7.58311 12.3516 7.55012 12.2707C7.51713 12.1899 7.50066 12.1032 7.50167 12.0158C7.50167 11.6375 7.79333 11.3525 8.165 11.3525C8.5425 11.3525 8.8275 11.6375 8.8275 12.0158C8.8292 12.1033 8.81322 12.1902 8.78053 12.2714C8.74784 12.3525 8.6991 12.4262 8.63724 12.4881C8.57538 12.5499 8.50167 12.5987 8.42052 12.6314C8.33938 12.6641 8.25247 12.68 8.165 12.6783Z" fill="#616161"/>
</svg>
