<svg width="28" height="28" viewBox="0 0 28 28" fill="none" xmlns="http://www.w3.org/2000/svg">
<path d="M14 3.125C20.2132 3.125 25.25 8.1618 25.25 14.375C25.25 17.3275 24.1106 20.0126 22.25 22.0195L21.9678 21.7666C19.7574 19.7848 16.9301 18.6743 14.001 18.6748C11.0736 18.6754 8.24325 19.7768 6.03223 21.7607L5.74609 22.0166C3.88747 20.01 2.75 17.3258 2.75 14.375C2.75 8.1618 7.7868 3.125 14 3.125ZM14 7.67578C11.9565 7.67578 10.2998 9.33252 10.2998 11.376C10.2998 13.4194 11.9565 15.0762 14 15.0762C16.0435 15.0762 17.7002 13.4194 17.7002 11.376C17.7002 9.33252 16.0435 7.67578 14 7.67578Z" fill="#0E70E3"/>
<circle cx="14" cy="14.375" r="10.5" stroke="#0E70E3" stroke-width="1.5"/>
</svg>
