<svg width="20" height="20" viewBox="0 0 20 20" fill="none" xmlns="http://www.w3.org/2000/svg">
<path d="M14.6277 5.8345C14.4636 5.67117 14.3815 5.46894 14.3815 5.22783C14.3815 4.98672 14.4632 4.7845 14.6265 4.62117C14.7906 4.45706 14.9928 4.375 15.2332 4.375C15.4735 4.375 15.6761 4.45667 15.841 4.62C16.0043 4.78411 16.086 4.98633 16.086 5.22667C16.086 5.467 16.0043 5.66961 15.841 5.8345C15.6777 5.99939 15.4754 6.08106 15.2343 6.0795C14.9932 6.07795 14.791 5.99628 14.6277 5.8345ZM6.59633 12.474L8.80367 9.60283L10.6575 11.802L13.5205 8.21217L16.737 12.474H6.59633ZM1.88533 19.8333C1.34789 19.8333 0.8995 19.6537 0.540167 19.2943C0.180833 18.935 0.000777778 18.4866 0 17.9492V4.2175H1.16667V17.9492C1.16667 18.1281 1.24133 18.2926 1.39067 18.4427C1.54 18.5928 1.7045 18.6674 1.88417 18.6667H15.6158V19.8333H1.88533ZM3.5 7.2135V1.88533C3.5 1.34789 3.68006 0.8995 4.04017 0.540167C4.40028 0.180833 4.84867 0.000777778 5.38533 0H10.276V1.16667H5.38533C5.20567 1.16667 5.04078 1.24133 4.89067 1.39067C4.74056 1.54 4.66589 1.7045 4.66667 1.88417V7.2135H3.5ZM5.38533 16.3333C4.84789 16.3333 4.3995 16.1537 4.04017 15.7943C3.68083 15.435 3.50078 14.9866 3.5 14.4492V9.99483H4.66667V14.4492C4.66667 14.6281 4.74133 14.7926 4.89067 14.9427C5.04 15.0928 5.2045 15.1674 5.38417 15.1667H10.276V16.3333H5.38533ZM13.0573 16.3333V15.1667H17.9492C18.1281 15.1667 18.2926 15.092 18.4427 14.9427C18.5928 14.7933 18.6674 14.6288 18.6667 14.4492V9.99483H19.8333V14.4492C19.8333 14.9858 19.6537 15.4342 19.2943 15.7943C18.935 16.1544 18.4862 16.3341 17.948 16.3333H13.0573ZM18.6667 7.2135V1.88533C18.6667 1.70567 18.592 1.54078 18.4427 1.39067C18.2933 1.24056 18.1284 1.16589 17.948 1.16667H13.0573V0H17.9492C18.4858 0 18.9342 0.180056 19.2943 0.540167C19.6544 0.900278 19.8341 1.34828 19.8333 1.88417V7.2135H18.6667Z" fill="#757575"/>
</svg>
