<svg width="28" height="28" viewBox="0 0 28 28" fill="none" xmlns="http://www.w3.org/2000/svg">
<path d="M13.5908 3.28528C13.8315 3.09804 14.1685 3.09804 14.4092 3.28528L23.7422 10.5441C23.9046 10.6703 24 10.8648 24 11.0704V23.3331C24 23.7013 23.7012 24.0001 23.333 24.0001H4.66699C4.2988 24.0001 4 23.7013 4 23.3331V11.0704C4.00005 10.8648 4.09547 10.6703 4.25781 10.5441L13.5908 3.28528ZM12.333 23.8331H15.667V14.6671H12.333V23.8331Z" stroke="#0088FF"/>
<path d="M15.917 14.4156H12.083V23.7487H4.66699C4.43687 23.7487 4.25 23.5618 4.25 23.3317V11.069C4.25005 10.9404 4.30969 10.8188 4.41113 10.7399L13.7441 3.48108C13.8946 3.36406 14.1054 3.36406 14.2559 3.48108L23.5889 10.7399C23.6904 10.8188 23.75 10.9405 23.75 11.069V23.3317C23.75 23.5618 23.5631 23.7487 23.333 23.7487H15.917V14.4156Z" stroke="#0088FF" stroke-width="1.5"/>
<rect x="12.834" y="22.1666" width="2.33333" height="2.33333" fill="white"/>
</svg>
