<svg width="210" height="74" viewBox="0 0 210 74" fill="none" xmlns="http://www.w3.org/2000/svg">
<path d="M178.457 28.4167C178.457 28.0485 178.756 27.75 179.124 27.75H184.916C185.284 27.75 185.583 28.0485 185.583 28.4167V39.1535C185.583 39.7238 186.272 40.0527 186.759 39.7562C188.286 38.8272 190.345 38.1562 192.803 38.1562C200.637 38.1562 205.639 43.1975 205.639 51.2912C205.639 60.7262 200.118 64.8425 192.567 64.8425C190.215 64.8425 187.374 63.9884 185.574 62.4269C185.188 62.0922 184.543 62.1919 184.352 62.6654L183.864 63.8709C183.762 64.1227 183.517 64.2875 183.246 64.2875H179.124C178.756 64.2875 178.457 63.989 178.457 63.6208V28.4167ZM185.583 48.5625V54.9912C185.583 58.09 188.462 59.1075 191.718 59.1075C196.956 59.1075 198.419 56.24 198.419 51.43C198.419 47.1287 197.097 43.8912 191.34 43.8912C188.226 43.8912 185.583 45.4637 185.583 48.5625Z" fill="#0088FF"/>
<path d="M166.8 47.4062C166.804 47.4062 166.808 47.4062 166.813 47.4062C167.256 47.4063 167.663 47.01 167.571 46.576C167.27 45.1462 166.376 43.66 163.449 43.66C160.484 43.66 157.519 44.2522 154.889 45.9109C154.545 46.1283 154.08 46.0162 153.895 45.6532L152.094 42.1221C151.947 41.8344 152.026 41.4816 152.293 41.2993C154.847 39.552 158.997 38.1562 164.11 38.1562C172.651 38.1562 174.728 43.475 174.728 48.84V63.6208C174.728 63.989 174.429 64.2875 174.061 64.2875H169.638C169.4 64.2875 169.18 64.1609 169.061 63.9552L168.504 62.995C168.286 62.6186 167.768 62.5475 167.409 62.7935C165.03 64.424 160.682 64.8425 159.013 64.8425C153.114 64.8425 150.613 61.0963 150.613 57.0263C150.613 51.1063 157.692 47.4062 166.8 47.4062ZM167.508 56.98C167.649 56.5175 167.696 56.1938 167.696 55.9625V52.7187C167.696 52.3999 167.469 52.1268 167.15 52.1241C167.111 52.1237 167.072 52.1237 167.036 52.1237H166.422C161.892 52.1237 157.786 53.65 157.786 56.4713C157.786 58.645 158.777 59.3388 160.099 59.3388C162.553 59.3388 166.894 58.645 167.508 56.98Z" fill="#0088FF"/>
<path d="M123.57 29.8034C123.57 29.4352 123.869 29.1367 124.237 29.1367H130.077C130.445 29.1367 130.743 29.4352 130.743 29.8034V57.7001C130.743 58.0682 131.042 58.3667 131.41 58.3667H147.065C147.434 58.3667 147.732 58.6652 147.732 59.0334V63.62C147.732 63.9882 147.434 64.2867 147.065 64.2867H124.237C123.869 64.2867 123.57 63.9882 123.57 63.62V29.8034Z" fill="#0088FF"/>
<path d="M95.9202 32.9518C95.9202 32.5836 96.2187 32.2852 96.5869 32.2852H102.285C102.653 32.2852 102.952 32.5836 102.952 32.9518V38.001C102.952 38.3692 103.25 38.6677 103.618 38.6677H108.892C109.26 38.6677 109.558 38.9661 109.558 39.3343V43.551C109.558 43.9192 109.26 44.2177 108.892 44.2177H103.618C103.25 44.2177 102.952 44.5161 102.952 44.8843V56.5202C102.952 58.0464 103.093 59.2489 104.792 59.2489C105.603 59.2489 107.666 59.2148 109.249 58.9709C109.642 58.9102 110.022 59.18 110.067 59.5759L110.493 63.3683C110.526 63.6669 110.356 63.9518 110.067 64.0322C108.241 64.5394 104.389 64.8452 103.188 64.8452C97.5247 64.7064 95.9202 61.6077 95.9202 57.4452V44.8843C95.9202 44.5161 95.6217 44.2177 95.2535 44.2177H91.5846C91.2164 44.2177 90.918 43.9192 90.918 43.551V39.3343C90.918 38.9661 91.2164 38.6677 91.5846 38.6677H95.2535C95.6217 38.6677 95.9202 38.3692 95.9202 38.001V32.9518Z" fill="#121212"/>
<path d="M81.1826 47.4062C81.1869 47.4062 81.1912 47.4062 81.1956 47.4062C81.6392 47.4063 82.0459 47.01 81.9543 46.576C81.6525 45.1462 80.7586 43.66 77.8321 43.66C74.8671 43.66 71.9022 44.2522 69.2723 45.9109C68.9276 46.1283 68.4633 46.0162 68.2781 45.6532L66.4767 42.1221C66.3299 41.8344 66.409 41.4816 66.6756 41.2993C69.2303 39.552 73.3798 38.1562 78.4927 38.1562C87.0343 38.1562 89.1107 43.475 89.1107 48.84V63.6208C89.1107 63.989 88.8122 64.2875 88.444 64.2875H84.0206C83.7829 64.2875 83.5631 64.1609 83.4439 63.9552L82.8872 62.995C82.669 62.6186 82.1507 62.5475 81.7918 62.7935C79.413 64.424 75.0653 64.8425 73.3961 64.8425C67.4972 64.8425 64.9961 61.0963 64.9961 57.0263C64.9961 51.1063 72.0748 47.4062 81.1826 47.4062ZM81.8905 56.98C82.0321 56.5175 82.0792 56.1938 82.0792 55.9625V52.7187C82.0792 52.3999 81.852 52.1268 81.5333 52.1241C81.4935 52.1237 81.4551 52.1237 81.4186 52.1237H80.8051C76.2748 52.1237 72.1691 53.65 72.1691 56.4713C72.1691 58.645 73.1601 59.3388 74.4815 59.3388C76.9354 59.3388 81.277 58.645 81.8905 56.98Z" fill="#121212"/>
<path d="M49.2209 64.8425C41.104 64.8425 35.4883 60.3563 35.4883 51.6613C35.4883 42.5963 40.8681 38.1562 49.2209 38.1562C57.5737 38.1562 62.9535 42.5963 62.9535 51.6613C62.9535 60.3563 57.3377 64.8425 49.2209 64.8425ZM49.2209 43.6138C44.1714 43.6138 42.5669 47.0825 42.5669 51.6613C42.5669 56.8413 44.8793 59.385 49.2209 59.385C53.5624 59.385 55.8748 56.8413 55.8748 51.6613C55.8748 47.0825 54.2703 43.6138 49.2209 43.6138Z" fill="#121212"/>
<path d="M5 29.8034C5 29.4352 5.29848 29.1367 5.66667 29.1367H18.9213C26.6135 29.1367 30.9551 32.0042 30.9551 38.5255C30.9551 41.1285 30.1887 43.1234 28.3671 44.8249C28.0082 45.1601 28.0651 45.7689 28.4791 46.033C31.1077 47.7093 32.5596 50.3478 32.5596 53.5105C32.5596 60.9567 28.5011 64.2867 20.6202 64.2867H5.66667C5.29848 64.2867 5 63.9882 5 63.62V29.8034ZM12.0787 57.7463C12.0787 58.1145 12.3771 58.413 12.7453 58.413H20.0539C23.3101 58.413 25.5281 57.2105 25.5281 53.418C25.5281 50.2267 23.027 49.0242 19.582 49.0242H12.7453C12.3771 49.0242 12.0787 49.3227 12.0787 49.6909V57.7463ZM12.0787 42.6226C12.0787 42.9907 12.3771 43.2892 12.7453 43.2892H18.4494C21.6584 43.2892 23.9236 41.9942 23.9236 38.618C23.9236 35.843 21.7056 35.0105 18.8742 35.0105H12.7453C12.3771 35.0105 12.0787 35.3089 12.0787 35.6771V42.6226Z" fill="#121212"/>
</svg>
