<svg width="28" height="28" viewBox="0 0 28 28" fill="none" xmlns="http://www.w3.org/2000/svg">
<mask id="path-1-outside-1_783_13361" maskUnits="userSpaceOnUse" x="2.5" y="3" width="24" height="24" fill="black">
<rect fill="white" x="2.5" y="3" width="24" height="24"/>
<path d="M7.40622 21.7039C8.44511 20.9559 9.54756 20.3647 10.7136 19.9304C11.8787 19.4953 13.1409 19.2778 14.5 19.2778C15.8591 19.2778 17.1213 19.4953 18.2864 19.9304C19.4516 20.3656 20.5541 20.9563 21.5938 21.7027C22.4004 20.8675 23.0494 19.8816 23.5408 18.7449C24.0321 17.6066 24.2778 16.3583 24.2778 15C24.2778 12.2907 23.3257 9.98359 21.4214 8.07856C19.5172 6.17352 17.2101 5.22141 14.5 5.22222C11.7899 5.22304 9.48278 6.17556 7.57856 8.07978C5.67433 9.984 4.72222 12.2907 4.72222 15C4.72222 16.3583 4.96789 17.6066 5.45922 18.7449C5.95056 19.8824 6.59956 20.8683 7.40622 21.7027M14.5012 15.6111C13.4713 15.6111 12.6023 15.2575 11.8942 14.5502C11.1861 13.843 10.8325 12.9748 10.8333 11.9457C10.8341 10.9166 11.1878 10.0476 11.8942 9.33867C12.6007 8.62978 13.4693 8.27615 14.5 8.27778C15.5307 8.27941 16.3993 8.63304 17.1058 9.33867C17.8122 10.0443 18.1659 10.9129 18.1667 11.9444C18.1675 12.976 17.8139 13.8446 17.1058 14.5502C16.3977 15.2559 15.5295 15.6095 14.5012 15.6111ZM14.5 26C12.9657 26 11.5296 25.7144 10.1917 25.1432C8.85374 24.572 7.68937 23.7914 6.69856 22.8014C5.70774 21.8114 4.92715 20.6471 4.35678 19.3083C3.78641 17.9696 3.50082 16.5335 3.5 15C3.49919 13.4665 3.78478 12.0304 4.35678 10.6917C4.92878 9.35293 5.70937 8.18856 6.69856 7.19856C7.68937 6.20856 8.85374 5.42796 10.1917 4.85678C11.5296 4.28559 12.9657 4 14.5 4C16.0343 4 17.4704 4.28559 18.8083 4.85678C20.1463 5.42796 21.3106 6.20856 22.3014 7.19856C23.2923 8.18856 24.0729 9.35293 24.6432 10.6917C25.2136 12.0304 25.4992 13.4665 25.5 15C25.5008 16.5335 25.2152 17.9696 24.6432 19.3083C24.0712 20.6471 23.2906 21.8114 22.3014 22.8014C21.3106 23.7914 20.1463 24.572 18.8083 25.1432C17.4704 25.7144 16.0343 26 14.5 26ZM14.5 24.7778C15.6269 24.7778 16.7354 24.5806 17.8257 24.1862C18.9159 23.7927 19.8582 23.2533 20.6527 22.568C19.859 21.93 18.9403 21.426 17.8966 21.0561C16.8528 20.6862 15.7206 20.5008 14.5 20.5C13.2794 20.4992 12.1431 20.6805 11.0912 21.0439C10.0393 21.4073 9.12426 21.9153 8.34611 22.568C9.14056 23.2524 10.0833 23.7919 11.1743 24.1862C12.2654 24.5806 13.3739 24.7778 14.5 24.7778ZM14.5 14.3889C15.1861 14.3889 15.765 14.153 16.2368 13.6812C16.7086 13.2094 16.9444 12.6305 16.9444 11.9444C16.9444 11.2584 16.7086 10.6794 16.2368 10.2077C15.765 9.73589 15.1861 9.5 14.5 9.5C13.8139 9.5 13.235 9.73589 12.7632 10.2077C12.2914 10.6794 12.0556 11.2584 12.0556 11.9444C12.0556 12.6305 12.2914 13.2094 12.7632 13.6812C13.235 14.153 13.8139 14.3889 14.5 14.3889Z"/>
</mask>
<path d="M7.40622 21.7039C8.44511 20.9559 9.54756 20.3647 10.7136 19.9304C11.8787 19.4953 13.1409 19.2778 14.5 19.2778C15.8591 19.2778 17.1213 19.4953 18.2864 19.9304C19.4516 20.3656 20.5541 20.9563 21.5938 21.7027C22.4004 20.8675 23.0494 19.8816 23.5408 18.7449C24.0321 17.6066 24.2778 16.3583 24.2778 15C24.2778 12.2907 23.3257 9.98359 21.4214 8.07856C19.5172 6.17352 17.2101 5.22141 14.5 5.22222C11.7899 5.22304 9.48278 6.17556 7.57856 8.07978C5.67433 9.984 4.72222 12.2907 4.72222 15C4.72222 16.3583 4.96789 17.6066 5.45922 18.7449C5.95056 19.8824 6.59956 20.8683 7.40622 21.7027M14.5012 15.6111C13.4713 15.6111 12.6023 15.2575 11.8942 14.5502C11.1861 13.843 10.8325 12.9748 10.8333 11.9457C10.8341 10.9166 11.1878 10.0476 11.8942 9.33867C12.6007 8.62978 13.4693 8.27615 14.5 8.27778C15.5307 8.27941 16.3993 8.63304 17.1058 9.33867C17.8122 10.0443 18.1659 10.9129 18.1667 11.9444C18.1675 12.976 17.8139 13.8446 17.1058 14.5502C16.3977 15.2559 15.5295 15.6095 14.5012 15.6111ZM14.5 26C12.9657 26 11.5296 25.7144 10.1917 25.1432C8.85374 24.572 7.68937 23.7914 6.69856 22.8014C5.70774 21.8114 4.92715 20.6471 4.35678 19.3083C3.78641 17.9696 3.50082 16.5335 3.5 15C3.49919 13.4665 3.78478 12.0304 4.35678 10.6917C4.92878 9.35293 5.70937 8.18856 6.69856 7.19856C7.68937 6.20856 8.85374 5.42796 10.1917 4.85678C11.5296 4.28559 12.9657 4 14.5 4C16.0343 4 17.4704 4.28559 18.8083 4.85678C20.1463 5.42796 21.3106 6.20856 22.3014 7.19856C23.2923 8.18856 24.0729 9.35293 24.6432 10.6917C25.2136 12.0304 25.4992 13.4665 25.5 15C25.5008 16.5335 25.2152 17.9696 24.6432 19.3083C24.0712 20.6471 23.2906 21.8114 22.3014 22.8014C21.3106 23.7914 20.1463 24.572 18.8083 25.1432C17.4704 25.7144 16.0343 26 14.5 26ZM14.5 24.7778C15.6269 24.7778 16.7354 24.5806 17.8257 24.1862C18.9159 23.7927 19.8582 23.2533 20.6527 22.568C19.859 21.93 18.9403 21.426 17.8966 21.0561C16.8528 20.6862 15.7206 20.5008 14.5 20.5C13.2794 20.4992 12.1431 20.6805 11.0912 21.0439C10.0393 21.4073 9.12426 21.9153 8.34611 22.568C9.14056 23.2524 10.0833 23.7919 11.1743 24.1862C12.2654 24.5806 13.3739 24.7778 14.5 24.7778ZM14.5 14.3889C15.1861 14.3889 15.765 14.153 16.2368 13.6812C16.7086 13.2094 16.9444 12.6305 16.9444 11.9444C16.9444 11.2584 16.7086 10.6794 16.2368 10.2077C15.765 9.73589 15.1861 9.5 14.5 9.5C13.8139 9.5 13.235 9.73589 12.7632 10.2077C12.2914 10.6794 12.0556 11.2584 12.0556 11.9444C12.0556 12.6305 12.2914 13.2094 12.7632 13.6812C13.235 14.153 13.8139 14.3889 14.5 14.3889Z" fill="#0088FF"/>
<path d="M10.7136 19.9304L10.7834 20.1179L10.7835 20.1178L10.7136 19.9304ZM21.5938 21.7027L21.4771 21.8651L21.6176 21.9659L21.7376 21.8416L21.5938 21.7027ZM23.5408 18.7449L23.7244 18.8242L23.7244 18.8241L23.5408 18.7449ZM5.45922 18.7449L5.2756 18.8241L5.27562 18.8242L5.45922 18.7449ZM14.5012 15.6111V15.8111H14.5015L14.5012 15.6111ZM6.69856 7.19856L6.55719 7.05708L6.55708 7.05719L6.69856 7.19856ZM22.3014 22.8014L22.4428 22.9429L22.4429 22.9428L22.3014 22.8014ZM14.5 24.7778V24.5778V24.7778ZM17.8257 24.1862L17.7578 23.9981L17.7576 23.9981L17.8257 24.1862ZM20.6527 22.568L20.7833 22.7194L20.9651 22.5626L20.778 22.4121L20.6527 22.568ZM8.34611 22.568L8.21759 22.4148L8.03733 22.566L8.21557 22.7195L8.34611 22.568ZM7.40622 21.7039L7.52308 21.8662C8.5479 21.1283 9.63458 20.5458 10.7834 20.1179L10.7136 19.9304L10.6437 19.743C9.46053 20.1837 8.34232 20.7835 7.28936 21.5416L7.40622 21.7039ZM10.7136 19.9304L10.7835 20.1178C11.9243 19.6918 13.1626 19.4778 14.5 19.4778V19.2778V19.0778C13.1192 19.0778 11.8331 19.2989 10.6436 19.7431L10.7136 19.9304ZM14.5 19.2778V19.4778C15.8374 19.4778 17.0757 19.6918 18.2165 20.1178L18.2864 19.9304L18.3564 19.7431C17.1669 19.2989 15.8808 19.0778 14.5 19.0778V19.2778ZM18.2864 19.9304L18.2165 20.1178C19.3646 20.5465 20.4514 21.1288 21.4771 21.8651L21.5938 21.7027L21.7104 21.5402C20.6567 20.7838 19.5387 20.1846 18.3564 19.7431L18.2864 19.9304ZM21.5938 21.7027L21.7376 21.8416C22.5621 20.988 23.2241 19.9815 23.7244 18.8242L23.5408 18.7449L23.3572 18.6655C22.8748 19.7816 22.2388 20.747 21.4499 21.5637L21.5938 21.7027ZM23.5408 18.7449L23.7244 18.8241C24.2275 17.6585 24.4778 16.3829 24.4778 15H24.2778H24.0778C24.0778 16.3337 23.8367 17.5547 23.3572 18.6656L23.5408 18.7449ZM24.2778 15H24.4778C24.4778 12.2381 23.5049 9.87995 21.5629 7.93716L21.4214 8.07856L21.28 8.21995C23.1465 10.0872 24.0778 12.3434 24.0778 15H24.2778ZM21.4214 8.07856L21.5629 7.93716C19.6209 5.99433 17.2627 5.02139 14.4999 5.02222L14.5 5.22222L14.5001 5.42222C17.1574 5.42142 19.4136 6.35271 21.28 8.21995L21.4214 8.07856ZM14.5 5.22222L14.4999 5.02222C11.7372 5.02305 9.37912 5.99637 7.43713 7.93836L7.57856 8.07978L7.71998 8.2212C9.58644 6.35474 11.8426 5.42302 14.5001 5.42222L14.5 5.22222ZM7.57856 8.07978L7.43713 7.93836C5.49515 9.88034 4.52222 12.2381 4.52222 15H4.72222H4.92222C4.92222 12.3434 5.85352 10.0877 7.71998 8.2212L7.57856 8.07978ZM4.72222 15H4.52222C4.52222 16.3829 4.77247 17.6585 5.2756 18.8241L5.45922 18.7449L5.64285 18.6656C5.16331 17.5547 4.92222 16.3337 4.92222 15H4.72222ZM5.45922 18.7449L5.27562 18.8242C5.77587 19.9823 6.4379 20.9888 7.26244 21.8417L7.40622 21.7027L7.55001 21.5637C6.76121 20.7478 6.12525 19.7824 5.64283 18.6656L5.45922 18.7449ZM14.5012 15.6111V15.4111C13.5226 15.4111 12.7049 15.0773 12.0356 14.4087L11.8942 14.5502L11.7529 14.6917C12.4997 15.4376 13.42 15.8111 14.5012 15.8111V15.6111ZM11.8942 14.5502L12.0356 14.4087C11.3663 13.7402 11.0326 12.9235 11.0333 11.9458L10.8333 11.9457L10.6333 11.9455C10.6325 13.0261 11.006 13.9457 11.7529 14.6917L11.8942 14.5502ZM10.8333 11.9457L11.0333 11.9458C11.0341 10.9679 11.3679 10.1501 12.0359 9.47984L11.8942 9.33867L11.7526 9.19749C11.0076 9.945 10.6342 10.8652 10.6333 11.9455L10.8333 11.9457ZM11.8942 9.33867L12.0359 9.47984C12.7035 8.80993 13.5204 8.47623 14.4997 8.47778L14.5 8.27778L14.5003 8.07778C13.4181 8.07607 12.4978 8.44962 11.7526 9.19749L11.8942 9.33867ZM14.5 8.27778L14.4997 8.47778C15.4794 8.47933 16.2967 8.81325 16.9644 9.48017L17.1058 9.33867L17.2471 9.19716C16.5019 8.45283 15.582 8.07949 14.5003 8.07778L14.5 8.27778ZM17.1058 9.33867L16.9644 9.48017C17.632 10.147 17.9659 10.9641 17.9667 11.9446L18.1667 11.9444L18.3667 11.9443C18.3658 10.8617 17.9924 9.94163 17.2471 9.19716L17.1058 9.33867ZM18.1667 11.9444L17.9667 11.9446C17.9674 12.9248 17.6337 13.7418 16.9646 14.4086L17.1058 14.5502L17.247 14.6919C17.994 13.9474 18.3675 13.0272 18.3667 11.9443L18.1667 11.9444ZM17.1058 14.5502L16.9646 14.4086C16.2951 15.0757 15.4781 15.4096 14.5009 15.4111L14.5012 15.6111L14.5015 15.8111C15.581 15.8094 16.5003 15.436 17.247 14.6919L17.1058 14.5502ZM14.5 26V25.8C12.9912 25.8 11.582 25.5193 10.2702 24.9593L10.1917 25.1432L10.1131 25.3272C11.4772 25.9095 12.9402 26.2 14.5 26.2V26ZM10.1917 25.1432L10.2702 24.9593C8.95481 24.3977 7.81199 23.6312 6.83992 22.66L6.69856 22.8014L6.55719 22.9429C7.56675 23.9516 8.75268 24.7464 10.1131 25.3272L10.1917 25.1432ZM6.69856 22.8014L6.83992 22.66C5.86793 21.6888 5.1015 20.5461 4.54078 19.2299L4.35678 19.3083L4.17278 19.3867C4.7528 20.7481 5.54755 21.9341 6.55719 22.9429L6.69856 22.8014ZM4.35678 19.3083L4.54078 19.2299C3.98151 17.9173 3.7008 16.5079 3.7 14.9999L3.5 15L3.3 15.0001C3.30083 16.559 3.5913 18.0219 4.17278 19.3867L4.35678 19.3083ZM3.5 15L3.7 14.9999C3.6992 13.492 3.97988 12.0828 4.5407 10.7702L4.35678 10.6917L4.17286 10.6131C3.58967 11.978 3.29917 13.441 3.3 15.0001L3.5 15ZM4.35678 10.6917L4.5407 10.7702C5.10309 9.45399 5.86959 8.31116 6.84004 7.33992L6.69856 7.19856L6.55708 7.05719C5.54915 8.06595 4.75447 9.25186 4.17286 10.6131L4.35678 10.6917ZM6.69856 7.19856L6.83992 7.34004C7.81199 6.36876 8.95481 5.60228 10.2702 5.04072L10.1917 4.85678L10.1131 4.67284C8.75268 5.25365 7.56675 6.04835 6.55719 7.05708L6.69856 7.19856ZM10.1917 4.85678L10.2702 5.04072C11.582 4.4807 12.9912 4.2 14.5 4.2V4V3.8C12.9402 3.8 11.4772 4.09048 10.1131 4.67284L10.1917 4.85678ZM14.5 4V4.2C16.0088 4.2 17.418 4.4807 18.7298 5.04072L18.8083 4.85678L18.8869 4.67284C17.5228 4.09048 16.0598 3.8 14.5 3.8V4ZM18.8083 4.85678L18.7298 5.04072C20.0452 5.60228 21.188 6.36876 22.1601 7.34004L22.3014 7.19856L22.4428 7.05708C21.4332 6.04835 20.2473 5.25365 18.8869 4.67284L18.8083 4.85678ZM22.3014 7.19856L22.1601 7.34004C23.1321 8.31123 23.8985 9.45395 24.4592 10.7701L24.6432 10.6917L24.8272 10.6133C24.2472 9.2519 23.4524 8.06589 22.4428 7.05708L22.3014 7.19856ZM24.6432 10.6917L24.4592 10.7701C25.0185 12.0827 25.2992 13.4921 25.3 15.0001L25.5 15L25.7 14.9999C25.6992 13.441 25.4087 11.9781 24.8272 10.6133L24.6432 10.6917ZM25.5 15L25.3 15.0001C25.3008 16.508 25.0201 17.9172 24.4593 19.2298L24.6432 19.3083L24.8271 19.3869C25.4103 18.022 25.7008 16.559 25.7 14.9999L25.5 15ZM24.6432 19.3083L24.4593 19.2298C23.8969 20.546 23.1304 21.6888 22.16 22.6601L22.3014 22.8014L22.4429 22.9428C23.4508 21.934 24.2455 20.7481 24.8271 19.3869L24.6432 19.3083ZM22.3014 22.8014L22.1601 22.66C21.188 23.6312 20.0452 24.3977 18.7298 24.9593L18.8083 25.1432L18.8869 25.3272C20.2473 24.7464 21.4332 23.9516 22.4428 22.9429L22.3014 22.8014ZM18.8083 25.1432L18.7298 24.9593C17.418 25.5193 16.0088 25.8 14.5 25.8V26V26.2C16.0598 26.2 17.5228 25.9095 18.8869 25.3272L18.8083 25.1432ZM14.5 24.7778V24.9778C15.6508 24.9778 16.7823 24.7763 17.8937 24.3743L17.8257 24.1862L17.7576 23.9981C16.6886 24.3849 15.603 24.5778 14.5 24.5778V24.7778ZM17.8257 24.1862L17.8936 24.3743C19.0044 23.9734 19.9685 23.4222 20.7833 22.7194L20.6527 22.568L20.522 22.4166C19.7479 23.0843 18.8274 23.612 17.7578 23.9981L17.8257 24.1862ZM20.6527 22.568L20.778 22.4121C19.9653 21.7589 19.0265 21.2444 17.9634 20.8676L17.8966 21.0561L17.8297 21.2446C18.8542 21.6077 19.7527 22.1011 20.5274 22.7239L20.6527 22.568ZM17.8966 21.0561L17.9634 20.8676C16.8961 20.4893 15.7411 20.3008 14.5001 20.3L14.5 20.5L14.4999 20.7C15.7001 20.7008 16.8095 20.883 17.8297 21.2446L17.8966 21.0561ZM14.5 20.5L14.5001 20.3C13.2594 20.2992 12.1008 20.4835 11.0259 20.8549L11.0912 21.0439L11.1565 21.2329C12.1855 20.8775 13.2994 20.6992 14.4999 20.7L14.5 20.5ZM11.0912 21.0439L11.0259 20.8549C9.95312 21.2255 9.01616 21.745 8.21759 22.4148L8.34611 22.568L8.47464 22.7212C9.23236 22.0857 10.1255 21.5891 11.1565 21.2329L11.0912 21.0439ZM8.34611 22.568L8.21557 22.7195C9.03033 23.4215 9.99484 23.9725 11.1063 24.3743L11.1743 24.1862L11.2423 23.9981C10.1718 23.6112 9.25079 23.0834 8.47665 22.4165L8.34611 22.568ZM11.1743 24.1862L11.1063 24.3743C12.2185 24.7763 13.35 24.9778 14.5 24.9778V24.7778V24.5778C13.3978 24.5778 12.3122 24.3849 11.2423 23.9981L11.1743 24.1862ZM14.5 14.3889V14.5889C15.2374 14.5889 15.8677 14.3331 16.3782 13.8226L16.2368 13.6812L16.0954 13.5398C15.6623 13.9729 15.1347 14.1889 14.5 14.1889V14.3889ZM16.2368 13.6812L16.3782 13.8226C16.8887 13.3122 17.1444 12.6819 17.1444 11.9444H16.9444H16.7444C16.7444 12.5792 16.5285 13.1067 16.0954 13.5398L16.2368 13.6812ZM16.9444 11.9444H17.1444C17.1444 11.207 16.8887 10.5767 16.3782 10.0662L16.2368 10.2077L16.0954 10.3491C16.5285 10.7822 16.7444 11.3097 16.7444 11.9444H16.9444ZM16.2368 10.2077L16.3782 10.0662C15.8677 9.55579 15.2374 9.3 14.5 9.3V9.5V9.7C15.1347 9.7 15.6623 9.91599 16.0954 10.3491L16.2368 10.2077ZM14.5 9.5V9.3C13.7626 9.3 13.1323 9.55579 12.6218 10.0662L12.7632 10.2077L12.9046 10.3491C13.3377 9.91599 13.8653 9.7 14.5 9.7V9.5ZM12.7632 10.2077L12.6218 10.0662C12.1113 10.5767 11.8556 11.207 11.8556 11.9444H12.0556H12.2556C12.2556 11.3097 12.4715 10.7822 12.9046 10.3491L12.7632 10.2077ZM12.0556 11.9444H11.8556C11.8556 12.6819 12.1113 13.3122 12.6218 13.8226L12.7632 13.6812L12.9046 13.5398C12.4715 13.1067 12.2556 12.5792 12.2556 11.9444H12.0556ZM12.7632 13.6812L12.6218 13.8226C13.1323 14.3331 13.7626 14.5889 14.5 14.5889V14.3889V14.1889C13.8653 14.1889 13.3377 13.9729 12.9046 13.5398L12.7632 13.6812Z" fill="#0088FF" mask="url(#path-1-outside-1_783_13361)"/>
</svg>
