<svg width="28" height="28" viewBox="0 0 28 28" fill="none" xmlns="http://www.w3.org/2000/svg">
<path d="M11 4.25C11.2508 4.25 11.4849 4.37534 11.624 4.58398L13.4014 7.25H22C22.7293 7.25 23.4286 7.53994 23.9443 8.05566C24.4601 8.57139 24.75 9.27065 24.75 10V21C24.75 21.7293 24.4601 22.4286 23.9443 22.9443C23.4286 23.4601 22.7293 23.75 22 23.75H6C5.27065 23.75 4.57139 23.4601 4.05566 22.9443C3.53994 22.4286 3.25 21.7293 3.25 21V7C3.25 6.27065 3.53994 5.57139 4.05566 5.05566C4.57139 4.53994 5.27065 4.25 6 4.25H11ZM11 15.25C10.5858 15.25 10.25 15.5858 10.25 16C10.25 16.4142 10.5858 16.75 11 16.75H17C17.4142 16.75 17.75 16.4142 17.75 16C17.75 15.5858 17.4142 15.25 17 15.25H11Z" fill="#0E70E3"/>
</svg>
